/* XPM */
static const char * icon_main_window_xpm[] = {
"16 16 100 2",
"       c #FFFFFF",
".      c #E0E0E0",
"+      c #A4A4A4",
"@      c #7C7C7C",
"#      c #7E7E7E",
"$      c #787878",
"%      c #7B7B7B",
"&      c #616161",
"*      c #707070",
"=      c #898989",
"-      c #ECECEC",
"; 	c #A3A3A3",
"> 	c #878787",
", 	c #A9A9A9",
"' 	c #B3B3B3",
") 	c #C8C8C8",
"! 	c #AFAFAF",
"~ 	c #C1C1C1",
"{ 	c #B9B9B9",
"] 	c #ABABAB",
"^ 	c #7D7D7D",
"/ 	c #A0A0A0",
"( 	c #EDEDED",
"_ 	c #E1E1E1",
": 	c #D7D7D7",
"< 	c #C2C2C2",
"[ 	c #C3C3C3",
"} 	c #BBBBBB",
"| 	c #D6D6D6",
"1 	c #BABABA",
"2 	c #E9E9E9",
"3 	c #B5B5B5",
"4 	c #7F7F7F",
"5 	c #727272",
"6 	c #8C8C8C",
"7 	c #EAEAEA",
"8 	c #6F6F6F",
"9 	c #737373",
"0 	c #9D9D9D",
"a 	c #F8F8F8",
"b 	c #F9F9F9",
"c 	c #0F0F0F",
"d 	c #292929",
"e 	c #818181",
"f 	c #4A4A4A",
"g 	c #9E9E9E",
"h 	c #131313",
"i 	c #000000",
"j 	c #CBCBCB",
"k 	c #999999",
"l 	c #FCFCFC",
"m 	c #F6F6F6",
"n 	c #ACACAC",
"o 	c #6E6E6E",
"p 	c #606060",
"q 	c #0E0E0E",
"r 	c #525252",
"s 	c #4B4B4B",
"t 	c #333333",
"u 	c #313131",
"v 	c #F4F4F4",
"w 	c #5C5C5C",
"x 	c #282828",
"y 	c #383838",
"z 	c #3B3B3B",
"A 	c #9F9F9F",
"B 	c #2D2D2D",
"C 	c #1B1B1B",
"D 	c #2A2A2A",
"E 	c #949494",
"F 	c #F7F7F7",
"G 	c #6B6B6B",
"H 	c #595959",
"I 	c #777777",
"J 	c #979797",
"K 	c #5E5E5E",
"L 	c #848484",
"M 	c #7A7A7A",
"N 	c #A6A6A6",
"O 	c #8D8D8D",
"P 	c #AAAAAA",
"Q 	c #B1B1B1",
"R 	c #969696",
"S 	c #B2B2B2",
"T 	c #DADADA",
"U 	c #CFCFCF",
"V 	c #B8B8B8",
"W 	c #BCBCBC",
"X 	c #CDCDCD",
"Y 	c #9A9A9A",
"Z 	c #BDBDBD",
"` 	c #A8A8A8",
" .	c #DEDEDE",
"..	c #DDDDDD",
"+.	c #B7B7B7",
"@.	c #797979",
"#.	c #808080",
"$.	c #919191",
"%.	c #E4E4E4",
"&.	c #E7E7E7",
"                                ",
"                                ",
"      . + @ # $ % & * = .       ",
"  - ; > , ' ) ! ~ { ] + ^ / (   ",
"_ ' : < : ~ : [ : } : | 1 : 1 2 ",
"3 ) 4 5 6 7 % 8 8 8 9 0 a 8 $ [ ",
"b c d e f g h i j ! i i k i c l ",
"m n o p q r h i s t i u ( i c   ",
"v w x y z A B C   l D C E C D   ",
"F G @ H 0 I I J K 0 L / % 0 M b ",
"N / / O 6 P / e J Q R Q P e e S ",
"T / U V U W U W U 3 U X ' U ] . ",
"  7 Y > , Z ) ! < W ; ` @ R  .X ",
"      ..+.O O @.e p #.$...  %.&.",
"                                ",
"                                "};
